<svg width="16" height="16" viewBox="0 0 16 16" fill="none" xmlns="http://www.w3.org/2000/svg">
<path d="M11.6665 10.6668H11.3332V12.0001H11.6665C12.1773 11.9998 12.6823 11.8928 13.1493 11.686C13.6163 11.4791 14.0349 11.177 14.3784 10.7989C14.7218 10.4209 14.9825 9.97527 15.1437 9.49061C15.3049 9.00596 15.363 8.49298 15.3144 7.98454C15.2658 7.4761 15.1115 6.98343 14.8615 6.53809C14.6114 6.09275 14.271 5.70457 13.8622 5.39843C13.4533 5.09229 12.985 4.87494 12.4873 4.76031C11.9896 4.64568 11.4734 4.6363 10.9718 4.73277C10.5215 3.57253 9.67965 2.60629 8.59197 2.00141C7.50429 1.39652 6.23932 1.19106 5.01611 1.42062C3.7929 1.65018 2.68848 2.3003 1.89413 3.25839C1.09977 4.21648 0.665496 5.42221 0.666506 6.66677V6.67144H1.99984V6.66677C1.99984 5.6059 2.42127 4.58849 3.17141 3.83834C3.92156 3.0882 4.93897 2.66677 5.99984 2.66677C7.06071 2.66677 8.07812 3.0882 8.82827 3.83834C9.57841 4.58849 9.99984 5.6059 9.99984 6.66677V6.7001C10.2691 6.42538 10.6022 6.2215 10.9693 6.1066C11.3364 5.99171 11.7263 5.96937 12.1041 6.04157C12.482 6.11378 12.8361 6.27828 13.135 6.52045C13.4339 6.76262 13.6683 7.07493 13.8173 7.42959C13.9664 7.78425 14.0254 8.17025 13.9891 8.55323C13.9529 8.93621 13.8225 9.30429 13.6096 9.62471C13.3968 9.94512 13.1079 10.2079 12.7689 10.3897C12.4299 10.5715 12.0512 10.6667 11.6665 10.6668Z" fill="url(#paint0_linear_4311_2318)"/>
<path fill-rule="evenodd" clip-rule="evenodd" d="M0.666504 10.6667C0.666504 10.2985 0.964981 10 1.33317 10H10.6665C11.0347 10 11.3332 10.2986 11.3332 10.6668L11.3332 14C11.3332 14.3682 11.0347 14.6667 10.6665 14.6667H1.33317C0.964981 14.6667 0.666504 14.3682 0.666504 14V10.6667ZM5.33317 11.6667H1.99984V13H5.33317V11.6667ZM7.99984 12.3333C7.99984 12.7015 7.70136 13 7.33317 13C6.96498 13 6.66651 12.7015 6.66651 12.3333C6.66651 11.9651 6.96498 11.6667 7.33317 11.6667C7.70136 11.6667 7.99984 11.9651 7.99984 12.3333ZM9.99984 12.3333C9.99984 12.7015 9.70136 13 9.33317 13C8.96498 13 8.66651 12.7015 8.66651 12.3333C8.66651 11.9651 8.96498 11.6667 9.33317 11.6667C9.70136 11.6667 9.99984 11.9651 9.99984 12.3333Z" fill="url(#paint1_linear_4311_2318)"/>
<defs>
<linearGradient id="paint0_linear_4311_2318" x1="15.3332" y1="1.33333" x2="0.666506" y2="14.6667" gradientUnits="userSpaceOnUse">
<stop stop-color="#0044F4"/>
<stop offset="1" stop-color="#00C8F4"/>
</linearGradient>
<linearGradient id="paint1_linear_4311_2318" x1="15.3332" y1="1.33333" x2="0.666506" y2="14.6667" gradientUnits="userSpaceOnUse">
<stop stop-color="#0044F4"/>
<stop offset="1" stop-color="#00C8F4"/>
</linearGradient>
</defs>
</svg>
