<svg width="16" height="16" viewBox="0 0 16 16" fill="none" xmlns="http://www.w3.org/2000/svg">
<path d="M9.33317 12.0001V10.6668H11.6665C12.0512 10.6667 12.4299 10.5715 12.7689 10.3897C13.1079 10.2079 13.3968 9.94512 13.6096 9.6247C13.8225 9.30429 13.9529 8.93621 13.9891 8.55323C14.0254 8.17024 13.9664 7.78424 13.8173 7.42959C13.6683 7.07493 13.4339 6.76262 13.135 6.52045C12.8361 6.27828 12.482 6.11378 12.1041 6.04157C11.7263 5.96937 11.3364 5.99171 10.9693 6.1066C10.6022 6.22149 10.2691 6.42538 9.99984 6.7001V6.66677C9.99984 5.6059 9.57841 4.58849 8.82827 3.83834C8.07812 3.0882 7.06071 2.66677 5.99984 2.66677C4.93897 2.66677 3.92156 3.0882 3.17141 3.83834C2.42127 4.58849 1.99984 5.6059 1.99984 6.66677V6.67144H0.666506V6.66677C0.665496 5.42221 1.09977 4.21648 1.89413 3.25839C2.68848 2.3003 3.7929 1.65018 5.01611 1.42062C6.23932 1.19106 7.50429 1.39652 8.59197 2.00141C9.67965 2.60629 10.5215 3.57253 10.9718 4.73277C11.4734 4.6363 11.9896 4.64568 12.4873 4.76031C12.985 4.87494 13.4533 5.09229 13.8622 5.39843C14.271 5.70457 14.6114 6.09275 14.8615 6.53809C15.1115 6.98343 15.2658 7.4761 15.3144 7.98454C15.363 8.49298 15.3049 9.00596 15.1437 9.49061C14.9825 9.97527 14.7218 10.4209 14.3784 10.7989C14.035 11.177 13.6163 11.4791 13.1493 11.686C12.6823 11.8928 12.1773 11.9998 11.6665 12.0001H9.33317ZM3.99984 13.3334H10.6665V14.6668H3.99984V13.3334ZM3.99984 8.0001H9.33317V9.33344H3.99984V8.0001ZM1.33317 10.6668H7.99984V12.0001H1.33317V10.6668Z" fill="url(#paint0_linear_4311_2305)"/>
<defs>
<linearGradient id="paint0_linear_4311_2305" x1="15.3332" y1="1.33333" x2="0.666406" y2="14.6667" gradientUnits="userSpaceOnUse">
<stop stop-color="#6F28FF"/>
<stop offset="1" stop-color="#FF3C99"/>
</linearGradient>
</defs>
</svg>
